<svg xmlns="http://www.w3.org/2000/svg" viewBox="0 0 1333.34 1333.33" shape-rendering="geometricPrecision" text-rendering="geometricPrecision" image-rendering="optimizeQuality" fill-rule="evenodd" clip-rule="evenodd"><path d="M1208.31 0H125.02C56.28 0 0 56.27 0 125.02v1083.29c0 68.74 56.28 125.02 125.02 125.02h1083.29c68.74 0 125.02-56.28 125.02-125.02l.01-1083.3c0-68.74-56.28-125.02-125.02-125.02h-.01zM876.22 260.36c-17.5 0-25.09 11.03-31.37 22.32 0 0-252.48 447.75-260.8 462.45.43.8 166.53 305.52 166.53 305.52 5.81 10.39 14.79 22.32 32.74 22.32h117.06c7.06 0 12.58-2.67 15.56-7.49 3.12-5 3.04-11.61-.24-18.11L750.48 745.5a.747.747 0 01-.12-.39c0-.14.04-.28.12-.39l259.49-458.8c3.25-6.47 3.33-13.08.24-18.09-2.99-4.82-8.52-7.48-15.58-7.48h-118.4zM383.86 420.84c-7.06 0-13 2.48-15.98 7.32-3.09 5.01-2.61 11.46.67 17.98l79.24 137.17c.13.27.13.43 0 .67L323.27 803.72c-3.25 6.48-3.09 12.97 0 17.98 2.98 4.82 8.26 7.99 15.31 7.99h117.2c17.52 0 25.97-11.83 31.96-22.65 0 0 121.78-215.38 126.52-223.74-.48-.78-80.57-140.5-80.57-140.5-5.83-10.39-14.65-21.97-32.63-21.97h-117.2z" fill="#046064"/></svg>